<svg class="svggear" height="100%" viewBox="-157 -157 314 314">
  <clipPath id="svgPath">
    <path id="gearpoly0" data-id="0" class="gear" fill="transparent" stroke="#444" stroke-width="1" stroke-miterlimit="10"
      d="M29.375,0 42.266,0 42.355,-0.004 42.548,-0.023 42.845,-0.065 43.242,-0.143 43.736,-0.266 44.325,-0.443 45.003,-0.684 45.765,-0.999 46.606,-1.397 47.518,-1.886 48.495,-2.473 49.529,-3.167 50.611,-3.975 51.733,-4.902 52.884,-5.955 54.056,-7.139 55.237,-8.458 55.532,-8.809 55.551,-8.831 55.552,-8.834 53.684,-16.797 53.681,-16.799 53.655,-16.811 53.234,-16.994 51.589,-17.65 50.014,-18.189 48.514,-18.62 47.097,-18.952 45.769,-19.194 44.534,-19.355 43.398,-19.447 42.363,-19.479 41.434,-19.461 40.611,-19.404 39.896,-19.319 39.29,-19.216 38.792,-19.106 38.402,-18.998 38.118,-18.905 37.936,-18.835 37.855,-18.799 26.309,-13.066 18.315,-22.966 26.352,-33.045 26.404,-33.117 26.511,-33.28 26.662,-33.538 26.849,-33.897 27.062,-34.36 27.29,-34.931 27.524,-35.612 27.753,-36.404 27.966,-37.309 28.153,-38.327 28.303,-39.457 28.405,-40.698 28.448,-42.048 28.422,-43.503 28.317,-45.059 28.122,-46.713 27.827,-48.459 27.736,-48.909 27.731,-48.938 27.729,-48.94 20.339,-52.444 20.336,-52.444 20.31,-52.43 19.905,-52.215 18.366,-51.339 16.962,-50.443 15.69,-49.539 14.547,-48.638 13.53,-47.75 12.634,-46.886 11.854,-46.055 11.184,-45.266 10.618,-44.528 10.15,-43.849 9.771,-43.237 9.473,-42.699 9.249,-42.241 9.09,-41.87 8.986,-41.589 8.927,-41.403 8.904,-41.317 6.188,-28.716 -6.537,-28.639 -9.405,-41.206 -9.429,-41.292 -9.49,-41.477 -9.598,-41.756 -9.762,-42.126 -9.991,-42.581 -10.295,-43.115 -10.681,-43.723 -11.158,-44.396 -11.733,-45.127 -12.412,-45.907 -13.202,-46.729 -14.109,-47.583 -15.137,-48.458 -16.291,-49.345 -17.574,-50.233 -18.988,-51.112 -20.537,-51.97 -20.945,-52.18 -20.971,-52.193 -20.974,-52.193 -28.322,-48.6 -28.323,-48.597 -28.328,-48.569 -28.413,-48.118 -28.687,-46.368 -28.862,-44.712 -28.948,-43.154 -28.957,-41.699 -28.897,-40.35 -28.78,-39.111 -28.616,-37.982 -28.417,-36.967 -28.193,-36.064 -27.954,-35.275 -27.712,-34.597 -27.477,-34.029 -27.259,-33.568 -27.067,-33.212 -26.913,-32.955 -26.805,-32.794 -26.752,-32.722 -18.593,-22.742 -26.466,-12.745 -38.08,-18.338 -38.162,-18.373 -38.345,-18.441 -38.63,-18.531 -39.022,-18.633 -39.52,-18.737 -40.128,-18.833 -40.843,-18.91 -41.667,-18.956 -42.597,-18.963 -43.631,-18.919 -44.766,-18.813 -45.998,-18.636 -47.324,-18.378 -48.737,-18.029 -50.231,-17.58 -51.8,-17.022 -53.436,-16.346 -53.855,-16.158 -53.881,-16.146 -53.884,-16.144 -55.655,-8.159 -55.654,-8.156 -55.635,-8.134 -55.335,-7.786 -54.138,-6.482 -52.953,-5.312 -51.788,-4.273 -50.656,-3.36 -49.564,-2.565 -48.522,-1.884 -47.538,-1.308 -46.62,-0.831 -45.774,-0.444 -45.008,-0.138 -44.327,0.096 -43.736,0.266 -43.24,0.382 -42.842,0.455 -42.546,0.494 -42.352,0.51 -42.263,0.513 -29.373,0.357 -26.466,12.745 -38.08,18.338 -38.159,18.381 -38.325,18.481 -38.573,18.649 -38.897,18.891 -39.29,19.216 -39.743,19.631 -40.249,20.143 -40.8,20.757 -41.384,21.48 -41.995,22.316 -42.62,23.27 -43.25,24.343 -43.875,25.54 -44.483,26.863 -45.063,28.311 -45.605,29.886 -46.097,31.587 -46.211,32.031 -46.218,32.059 -46.218,32.062 -41.079,38.426 -41.076,38.427 -41.047,38.426 -40.589,38.408 -38.822,38.286 -37.169,38.088 -35.631,37.825 -34.21,37.51 -32.908,37.151 -31.726,36.761 -30.662,36.351 -29.716,35.931 -28.886,35.511 -28.17,35.103 -27.563,34.716 -27.062,34.36 -26.661,34.045 -26.356,33.779 -26.14,33.572 -26.007,33.43 -25.949,33.362 -18.035,23.187 -6.537,28.639 -9.405,41.206 -9.421,41.294 -9.446,41.487 -9.47,41.785 -9.483,42.19 -9.473,42.699 -9.432,43.312 -9.347,44.027 -9.209,44.84 -9.009,45.748 -8.736,46.747 -8.38,47.83 -7.934,48.992 -7.387,50.227 -6.732,51.527 -5.962,52.883 -5.069,54.289 -4.045,55.734 -3.769,56.1 -3.751,56.123 -3.749,56.125 4.43,56.075 4.432,56.073 4.45,56.05 4.722,55.681 5.727,54.223 6.604,52.807 7.358,51.441 7.996,50.133 8.528,48.892 8.96,47.725 9.303,46.637 9.564,45.636 9.753,44.725 9.881,43.91 9.957,43.195 9.991,42.581 9.994,42.071 9.977,41.667 9.949,41.369 9.921,41.176 9.905,41.089 6.884,28.557 18.315,22.966 26.352,33.045 26.411,33.112 26.546,33.252 26.764,33.457 27.073,33.719 27.477,34.029 27.982,34.379 28.594,34.758 29.316,35.158 30.151,35.567 31.101,35.976 32.17,36.373 33.357,36.749 34.663,37.091 36.087,37.39 37.629,37.634 39.285,37.811 41.052,37.912 41.511,37.924 41.54,37.925 41.543,37.924 46.604,31.499 46.604,31.496 46.596,31.468 46.477,31.024 45.965,29.33 45.404,27.762 44.806,26.32 44.182,25.006 43.542,23.816 42.899,22.75 42.262,21.805 41.642,20.976 41.049,20.26 40.491,19.652 39.979,19.147 39.52,18.737 39.124,18.417 38.797,18.179 38.547,18.015 38.379,17.916 38.3,17.875 26.619,12.423 z" />
  </clipPath>
</svg>
